<svg width="33" height="32" viewBox="0 0 33 32" fill="none" xmlns="http://www.w3.org/2000/svg">
<g clip-path="url(#clip0_89_2151)">
<path fill-rule="evenodd" clip-rule="evenodd" d="M27.324 4.65067C24.3293 1.65333 20.348 0.00133333 16.1066 0C7.36663 0 0.2533 7.112 0.2493 15.856C0.247967 18.6507 0.978633 21.3787 2.36663 23.784L0.115967 32L8.5213 29.7947C10.8373 31.0587 13.4453 31.724 16.0986 31.7253H16.1053C24.844 31.7253 31.9586 24.612 31.9626 15.868C31.9653 11.632 30.3173 7.64667 27.324 4.65067ZM16.1066 29.0467H16.1013C13.736 29.0467 11.4173 28.4107 9.3933 27.2093L8.91197 26.924L3.92397 28.232L5.25597 23.368L4.94263 22.8693C3.62263 20.7707 2.92663 18.3453 2.92797 15.856C2.93063 8.58933 8.84397 2.67733 16.1133 2.67733C19.6333 2.67733 22.9426 4.05067 25.4306 6.54133C27.9186 9.03333 29.288 12.344 29.2866 15.8653C29.2826 23.1347 23.3706 29.0467 16.1066 29.0467ZM23.336 19.176C22.94 18.9773 20.992 18.0187 20.628 17.8867C20.2653 17.7547 20.0013 17.688 19.736 18.084C19.4706 18.48 18.7133 19.3733 18.4813 19.6387C18.2506 19.9027 18.0186 19.936 17.6226 19.7373C17.2266 19.5387 15.9493 19.1213 14.436 17.7707C13.2586 16.72 12.4626 15.4227 12.232 15.0253C12.0013 14.628 12.208 14.4147 12.4053 14.2173C12.584 14.04 12.8013 13.7547 13 13.5227C13.2 13.2933 13.2653 13.128 13.3986 12.8627C13.5306 12.5987 13.4653 12.3667 13.3653 12.168C13.2653 11.9707 12.4733 10.02 12.144 9.22667C11.8226 8.45333 11.496 8.55867 11.252 8.54667C11.0213 8.53467 10.7573 8.53333 10.492 8.53333C10.228 8.53333 9.79863 8.632 9.43597 9.02933C9.0733 9.42667 8.0493 10.3853 8.0493 12.3347C8.0493 14.2853 9.4693 16.1693 9.66663 16.4333C9.86397 16.6973 12.46 20.7 16.4346 22.416C17.38 22.824 18.1186 23.068 18.6933 23.2507C19.6426 23.552 20.5066 23.5093 21.1893 23.408C21.9506 23.2947 23.5333 22.4493 23.864 21.524C24.1946 20.5987 24.1946 19.804 24.0946 19.64C23.996 19.4733 23.732 19.3747 23.336 19.176Z" fill="#BE123C"/>
</g>
<defs>
<clipPath id="clip0_89_2151">
<rect width="32" height="32" fill="white" transform="translate(0.0400391)"/>
</clipPath>
</defs>
</svg>
