<svg width="132" height="48" viewBox="0 0 132 48" fill="none" xmlns="http://www.w3.org/2000/svg">
<g clip-path="url(#clip0_89_2104)">
<path d="M46.1699 8.15122C46.1699 10.431 45.2412 12.4861 43.768 13.9953C42.2948 15.5044 40.2131 16.4035 37.9392 16.4035H14.1758C7.48235 16.4035 2.06993 21.8301 2.06993 28.5411C2.06993 29.1512 2.13399 29.7292 2.19804 30.3072C0.596735 27.1604 -0.332031 23.3714 -0.332031 19.2613C-0.332031 9.94938 4.47189 2.21085 10.9091 0.316353C11.8699 0.0273622 12.8948 -0.101074 13.9196 -0.101074H37.9712C42.4869 -0.101074 46.1699 3.59159 46.1699 8.15122Z" fill="white"/>
<path d="M31.4059 27.706C31.4059 29.9858 30.4772 32.0409 28.9399 33.5501C27.4347 35.0592 25.3209 35.9583 23.0151 35.9583H18.051C12.7026 35.9583 7.99479 38.6556 5.27257 42.7657C3.67126 40.3895 2.77454 37.5638 2.77454 34.5134C2.77454 32.8757 3.03074 31.3024 3.51113 29.8574C5.49675 23.8207 11.2615 19.4858 18.051 19.4858H23.0151C27.4347 19.4858 31.0856 22.8895 31.3739 27.1923C31.4059 27.3207 31.4059 27.5134 31.4059 27.706Z" fill="white"/>
<path d="M10.685 47.6467C12.5245 47.6467 14.0157 46.1515 14.0157 44.3072C14.0157 42.4629 12.5245 40.9678 10.685 40.9678C8.84547 40.9678 7.35425 42.4629 7.35425 44.3072C7.35425 46.1515 8.84547 47.6467 10.685 47.6467Z" fill="white"/>
<path d="M54.1765 21.1561V25.0414H60.9661V27.7708H54.1765V33.1332H50.7817V18.4268H61.8628V21.1561H54.1765Z" fill="white"/>
<path d="M65.8341 32.5548C64.9053 32.0731 64.1687 31.3667 63.6243 30.4997C63.0798 29.6327 62.8236 28.6052 62.8236 27.4814C62.8236 26.3575 63.0798 25.3621 63.6243 24.463C64.1687 23.596 64.9053 22.8896 65.8341 22.408C66.7628 21.9263 67.8517 21.6694 69.0367 21.6694C70.2217 21.6694 71.2785 21.9263 72.2073 22.408C73.136 22.8896 73.8726 23.596 74.4171 24.463C74.9615 25.33 75.2177 26.3575 75.2177 27.4814C75.2177 28.6052 74.9615 29.6006 74.4171 30.4997C73.8726 31.3667 73.168 32.0731 72.2073 32.5548C71.2785 33.0364 70.2217 33.2933 69.0367 33.2933C67.8197 33.2933 66.7628 33.0685 65.8341 32.5548ZM71.0863 29.7612C71.6308 29.1832 71.887 28.4447 71.887 27.4814C71.887 26.5181 71.6308 25.7795 71.0863 25.2015C70.5419 24.6236 69.8694 24.3667 69.0367 24.3667C68.204 24.3667 67.4994 24.6557 66.955 25.2015C66.4105 25.7795 66.1223 26.5181 66.1223 27.4814C66.1223 28.4447 66.4105 29.1832 66.955 29.7612C67.4994 30.3392 68.204 30.596 69.0367 30.596C69.8694 30.596 70.5419 30.3392 71.0863 29.7612Z" fill="white"/>
<path d="M79.5412 32.5548C78.6125 32.0731 77.8759 31.3667 77.3314 30.4997C76.787 29.6327 76.5308 28.6052 76.5308 27.4814C76.5308 26.3575 76.787 25.3621 77.3314 24.463C77.8759 23.596 78.6125 22.8896 79.5412 22.408C80.47 21.9263 81.5589 21.6694 82.7438 21.6694C83.9288 21.6694 84.9857 21.9263 85.9144 22.408C86.8432 22.8896 87.5798 23.596 88.1242 24.463C88.6687 25.33 88.9249 26.3575 88.9249 27.4814C88.9249 28.6052 88.6687 29.6006 88.1242 30.4997C87.5798 31.3667 86.8752 32.0731 85.9144 32.5548C84.9857 33.0364 83.9288 33.2933 82.7438 33.2933C81.5589 33.2933 80.502 33.0685 79.5412 32.5548ZM84.7935 29.7612C85.3379 29.1832 85.5942 28.4447 85.5942 27.4814C85.5942 26.5181 85.3379 25.7795 84.7935 25.2015C84.2491 24.6236 83.5765 24.3667 82.7438 24.3667C81.9112 24.3667 81.2066 24.6557 80.6621 25.2015C80.1177 25.7795 79.8295 26.5181 79.8295 27.4814C79.8295 28.4447 80.1177 29.1832 80.6621 29.7612C81.2066 30.3392 81.9112 30.596 82.7438 30.596C83.5765 30.596 84.2811 30.3392 84.7935 29.7612Z" fill="white"/>
<path d="M102.568 17.5596V33.133H99.4615V31.8165C98.6608 32.8119 97.4759 33.2935 95.9386 33.2935C94.8818 33.2935 93.921 33.0687 93.0563 32.5871C92.1916 32.1054 91.519 31.4311 91.0386 30.5642C90.5582 29.6972 90.302 28.6697 90.302 27.4816C90.302 26.3256 90.5582 25.2981 91.0386 24.399C91.519 23.532 92.1916 22.8256 93.0563 22.3761C93.921 21.8944 94.8818 21.6697 95.9386 21.6697C97.3798 21.6697 98.5007 22.1192 99.3014 23.0504V17.5596H102.568ZM98.5647 29.7614C99.1092 29.1834 99.3974 28.4449 99.3974 27.4816C99.3974 26.5183 99.1092 25.7797 98.5647 25.2018C98.0203 24.6238 97.3478 24.3669 96.5151 24.3669C95.6824 24.3669 94.9778 24.6559 94.4334 25.2018C93.8889 25.7797 93.6007 26.5183 93.6007 27.4816C93.6007 28.4449 93.8889 29.1834 94.4334 29.7614C94.9778 30.3394 95.6824 30.5963 96.5151 30.5963C97.3157 30.5963 98.0203 30.3394 98.5647 29.7614Z" fill="white"/>
<path d="M116.788 21.8304L111.695 33.8396C111.183 35.1561 110.543 36.0552 109.774 36.6011C109.005 37.147 108.109 37.4038 107.02 37.4038C106.443 37.4038 105.867 37.3075 105.29 37.1149C104.714 36.9222 104.265 36.6653 103.881 36.3442L105.066 34.0002C105.322 34.2249 105.611 34.3855 105.931 34.5139C106.251 34.6424 106.571 34.7066 106.892 34.7066C107.34 34.7066 107.692 34.6103 107.98 34.3855C108.269 34.1607 108.525 33.8075 108.749 33.2937L108.781 33.1974L103.913 21.7983H107.276L110.446 29.4727L113.617 21.7983H116.788V21.8304Z" fill="white"/>
</g>
<defs>
<clipPath id="clip0_89_2104">
<rect width="132" height="48" fill="white"/>
</clipPath>
</defs>
</svg>
