<svg width="147" height="70" viewBox="0 0 147 70" fill="none" xmlns="http://www.w3.org/2000/svg">
<path d="M61.1699 19.6517C61.1699 21.9315 60.2412 23.9866 58.768 25.4957C57.2948 27.0049 55.2131 27.904 52.9392 27.904H29.1758C22.4824 27.904 17.0699 33.3306 17.0699 40.0416C17.0699 40.6517 17.134 41.2297 17.198 41.8077C15.5967 38.6609 14.668 34.8719 14.668 30.7618C14.668 21.4499 19.4719 13.7113 25.9091 11.8168C26.8699 11.5279 27.8948 11.3994 28.9196 11.3994H52.9712C57.4869 11.3994 61.1699 15.0921 61.1699 19.6517Z" fill="#BE123C"/>
<path d="M46.4059 39.2068C46.4059 41.4866 45.4772 43.5416 43.9399 45.0508C42.4347 46.56 40.3209 47.459 38.0151 47.459H33.051C27.7026 47.459 22.9948 50.1563 20.2726 54.2664C18.6713 51.8902 17.7745 49.0646 17.7745 46.0141C17.7745 44.3765 18.0307 42.8031 18.5111 41.3581C20.4968 35.3214 26.2615 30.9866 33.051 30.9866H38.0151C42.4347 30.9866 46.0856 34.3902 46.3739 38.693C46.4059 38.8214 46.4059 39.0141 46.4059 39.2068Z" fill="#BE123C"/>
<path d="M25.685 59.1467C27.5245 59.1467 29.0157 57.6515 29.0157 55.8072C29.0157 53.9629 27.5245 52.4678 25.685 52.4678C23.8455 52.4678 22.3542 53.9629 22.3542 55.8072C22.3542 57.6515 23.8455 59.1467 25.685 59.1467Z" fill="#BE123C"/>
<path d="M69.1765 32.656V36.5413H75.9661V39.2706H69.1765V44.633H65.7817V29.9266H76.8628V32.656H69.1765Z" fill="#BE123C"/>
<path d="M80.8341 44.0553C79.9053 43.5737 79.1687 42.8672 78.6243 42.0003C78.0798 41.1333 77.8236 40.1058 77.8236 38.9819C77.8236 37.8581 78.0798 36.8626 78.6243 35.9636C79.1687 35.0966 79.9053 34.3902 80.8341 33.9085C81.7628 33.4269 82.8517 33.17 84.0367 33.17C85.2217 33.17 86.2785 33.4269 87.2073 33.9085C88.136 34.3902 88.8726 35.0966 89.4171 35.9636C89.9615 36.8305 90.2177 37.8581 90.2177 38.9819C90.2177 40.1058 89.9615 41.1012 89.4171 42.0003C88.8726 42.8672 88.168 43.5737 87.2073 44.0553C86.2785 44.537 85.2217 44.7938 84.0367 44.7938C82.8197 44.7938 81.7628 44.5691 80.8341 44.0553ZM86.0863 41.2617C86.6308 40.6837 86.887 39.9452 86.887 38.9819C86.887 38.0186 86.6308 37.2801 86.0863 36.7021C85.5419 36.1241 84.8694 35.8672 84.0367 35.8672C83.204 35.8672 82.4994 36.1562 81.955 36.7021C81.4105 37.2801 81.1223 38.0186 81.1223 38.9819C81.1223 39.9452 81.4105 40.6837 81.955 41.2617C82.4994 41.8397 83.204 42.0966 84.0367 42.0966C84.8694 42.0966 85.5419 41.8397 86.0863 41.2617Z" fill="#BE123C"/>
<path d="M94.5412 44.0553C93.6125 43.5737 92.8759 42.8672 92.3314 42.0003C91.787 41.1333 91.5308 40.1058 91.5308 38.9819C91.5308 37.8581 91.787 36.8626 92.3314 35.9636C92.8759 35.0966 93.6125 34.3902 94.5412 33.9085C95.47 33.4269 96.5589 33.17 97.7438 33.17C98.9288 33.17 99.9857 33.4269 100.914 33.9085C101.843 34.3902 102.58 35.0966 103.124 35.9636C103.669 36.8305 103.925 37.8581 103.925 38.9819C103.925 40.1058 103.669 41.1012 103.124 42.0003C102.58 42.8672 101.875 43.5737 100.914 44.0553C99.9857 44.537 98.9288 44.7938 97.7438 44.7938C96.5589 44.7938 95.502 44.5691 94.5412 44.0553ZM99.7935 41.2617C100.338 40.6837 100.594 39.9452 100.594 38.9819C100.594 38.0186 100.338 37.2801 99.7935 36.7021C99.2491 36.1241 98.5765 35.8672 97.7438 35.8672C96.9112 35.8672 96.2066 36.1562 95.6621 36.7021C95.1177 37.2801 94.8295 38.0186 94.8295 38.9819C94.8295 39.9452 95.1177 40.6837 95.6621 41.2617C96.2066 41.8397 96.9112 42.0966 97.7438 42.0966C98.5765 42.0966 99.2811 41.8397 99.7935 41.2617Z" fill="#BE123C"/>
<path d="M117.568 29.0596V44.633H114.461V43.3165C113.661 44.3119 112.476 44.7936 110.939 44.7936C109.882 44.7936 108.921 44.5688 108.056 44.0871C107.192 43.6055 106.519 42.9312 106.039 42.0642C105.558 41.1972 105.302 40.1697 105.302 38.9816C105.302 37.8257 105.558 36.7982 106.039 35.8991C106.519 35.0321 107.192 34.3257 108.056 33.8761C108.921 33.3945 109.882 33.1697 110.939 33.1697C112.38 33.1697 113.501 33.6193 114.301 34.5505V29.0596H117.568ZM113.565 41.2615C114.109 40.6835 114.397 39.9449 114.397 38.9816C114.397 38.0183 114.109 37.2798 113.565 36.7018C113.02 36.1238 112.348 35.867 111.515 35.867C110.682 35.867 109.978 36.156 109.433 36.7018C108.889 37.2798 108.601 38.0183 108.601 38.9816C108.601 39.9449 108.889 40.6835 109.433 41.2615C109.978 41.8394 110.682 42.0963 111.515 42.0963C112.316 42.0963 113.02 41.8394 113.565 41.2615Z" fill="#BE123C"/>
<path d="M131.788 33.33L126.695 45.3392C126.183 46.6557 125.543 47.5548 124.774 48.1007C124.005 48.6465 123.109 48.9034 122.02 48.9034C121.443 48.9034 120.867 48.8071 120.29 48.6144C119.714 48.4218 119.265 48.1649 118.881 47.8438L120.066 45.4997C120.322 45.7245 120.611 45.8851 120.931 46.0135C121.251 46.1419 121.571 46.2062 121.892 46.2062C122.34 46.2062 122.692 46.1098 122.98 45.8851C123.269 45.6603 123.525 45.3071 123.749 44.7933L123.781 44.697L118.913 33.2979H122.276L125.446 40.9722L128.617 33.2979H131.788V33.33Z" fill="#BE123C"/>
</svg>
