<svg width="381" height="376" viewBox="0 0 381 376" fill="none" xmlns="http://www.w3.org/2000/svg">
<path d="M212.025 71.9033C203.72 71.9033 192.094 77.6833 212.025 100.803C215.347 96.4851 219.998 84.6592 212.025 71.9033Z" fill="#EDAE94"/>
<path d="M282.5 139C253.994 140.564 221.236 146.849 210.547 139C199.859 131.151 209.297 96.2961 250.137 85.9784C290.977 75.6608 279.375 106.041 282.5 139Z" fill="#44210C"/>
<path d="M237.762 133.83V163.727L198.897 167.713C197.236 193.292 205.873 237.472 265.666 237.472C331.439 237.472 342.069 185.984 344.394 163.727H292.573V98.951C303.203 99.2832 316.49 93.9682 314.497 75.0336C312.25 53.6851 291.244 66.729 284.601 75.0336V51.1163C284.601 19.2264 211.852 15.2403 211.852 51.1163V75.0336C209.46 83.8033 210.855 98.6188 211.852 104.93C213.446 124.064 229.79 132.17 237.762 133.83Z" fill="#FFCCB7"/>
<path fill-rule="evenodd" clip-rule="evenodd" d="M215.334 116.252C211.773 108.383 210.827 97.0503 212.267 79.5082L216.253 50.6081C225.977 15.7286 281.029 21.2827 284.774 50.9757V74.893C291.417 66.5884 312.423 53.5445 314.67 74.893C316.663 93.8276 303.376 99.1426 292.746 98.8104L291.991 99.2911C291.944 116.822 287.456 142.222 282.5 148.5L322 139C328.464 135.318 328.719 130.7 329.089 124.005C329.396 118.456 329.782 111.481 333.846 102.429C338.23 92.6661 335.389 85.2742 332.856 78.6858C330.957 73.7456 329.232 69.2571 330.857 64.5597C338.096 43.6319 307.306 20.7112 293.984 20.7112C286.012 -7.19237 234.191 -4.20271 214.26 13.7353C206.552 18.139 190.356 38.891 193.332 60.5735C194.224 67.0726 192.126 71.5578 190.07 75.9541C187.532 81.3817 185.057 86.6739 188.349 95.453C190.321 100.71 192.184 104.126 193.724 106.95C196.856 112.691 198.654 115.987 197.318 127.343C195.222 145.158 224.225 150.835 224.225 150.835C224.225 150.835 217.924 133.007 215.334 116.252Z" fill="#6C300D"/>
<path d="M265.839 132.693C253.88 134.686 245.908 135.683 237.936 133.69V158.604C257.069 156.212 264.51 139.669 265.839 132.693Z" fill="#EDAE94"/>
<path d="M294.739 85.8549C294.075 80.8721 293.743 71.903 305.702 72.8996" stroke="#52270F" stroke-width="0.5"/>
<path d="M231.201 106.415C234.432 110.034 244.156 112.395 249.894 103.793" stroke="#262626" stroke-width="0.5"/>
<path d="M236.939 85.8552C232.621 88.8449 226.575 95.4222 236.939 97.8139" stroke="#262626" stroke-width="0.5"/>
<path d="M249.894 77.8931C249.894 76.2362 251.237 74.8931 252.894 74.8931H254.866C256.523 74.8931 257.866 76.2362 257.866 77.8931V80.8724H249.894V77.8931Z" fill="#262626"/>
<path d="M221.99 77.8931C221.99 76.2362 223.334 74.8931 224.99 74.8931H226.963C228.62 74.8931 229.963 76.2362 229.963 77.8931V80.8724H221.99V77.8931Z" fill="#262626"/>
<path d="M247.453 63.0525C247.54 62.6473 247.867 62.3359 248.277 62.2774C254.689 61.3626 258.46 62.2641 264.52 65.747C264.893 65.9614 265.082 66.3931 264.993 66.8139L264.745 67.9797C264.599 68.667 263.807 68.9923 263.207 68.6262C258.018 65.4579 254.342 64.7605 248.321 65.4862C247.629 65.5696 247.049 64.9531 247.194 64.2718L247.453 63.0525Z" fill="#6C300D"/>
<path d="M218.272 67.7657C218.203 67.4289 218.312 67.0791 218.565 66.8467C222.294 63.4249 225.192 62.7154 230.611 62.9771C231.044 62.998 231.412 63.301 231.521 63.7206L231.79 64.7604C231.977 65.4862 231.326 66.1575 230.582 66.0653C226.717 65.5866 223.431 66.7038 219.97 68.9664C219.362 69.364 218.53 69.0387 218.385 68.3268L218.272 67.7657Z" fill="#6C300D"/>
<path d="M207.284 90.4703C205.291 64.5598 234.19 29.6805 275.048 33.6665C249.139 0.780154 236.184 23.7009 222.232 23.7009C202.887 23.7009 206.664 55.0592 203.297 57.5839C195.325 63.5633 200.308 87.4806 207.284 90.4703Z" fill="#B05520"/>
<rect x="295.231" y="92.7134" width="7.47245" height="17.438" rx="1.75" fill="#BE123C" stroke="white" stroke-width="0.5"/>
<path d="M140.046 280.135L201.869 173.504L204.337 251.079C204.337 251.079 153.038 340.905 140.046 328.018L66.8363 245.5L31.8392 245.5C13.1396 239.23 6.66486 218.195 8.58895 210.682C27.097 204.142 46.1524 199.115 55.3836 200.37C50.8829 195.803 46.8047 188.382 49.7584 182.933C81.527 198.429 94.5757 210.452 90.1098 229.094L140.046 280.135Z" fill="#FFCCB7"/>
<path d="M140.514 279.391C144.501 266.435 156.459 256.47 199.311 167.776L200.308 266.435C184.031 291.349 149.284 339.981 140.514 335.198C131.745 330.414 105.635 299.986 93.6763 285.37L113.607 250.491C127.559 264.442 138.189 274.74 140.514 279.391Z" fill="#86BEF1"/>
<path d="M253.125 167.776C254.122 158.236 257.112 153.824 292.746 154.821L293.984 158.236L345.564 163.586C359.914 193.084 319.895 269.425 313.915 309.287H206.287C206.287 287.23 189.346 257.526 189.346 233.549C189.346 204.445 199.07 181.891 199.07 167.573L233.949 163.586V156.814L245.153 158.236C245.415 170.845 244.156 167.205 244.156 174.181C245.016 166.367 251.132 174.181 253.125 167.776Z" fill="#AED8FF"/>
<circle r="1.99311" transform="matrix(-1 0 0 1 247.146 177.742)" fill="white"/>
<circle r="1.99311" transform="matrix(-1 0 0 1 257.112 166.208)" fill="white"/>
<circle r="1.99311" transform="matrix(-1 0 0 1 247.146 187.707)" fill="white"/>
<path d="M186.356 375.853C184.761 357.516 203.63 314.695 206.287 307.719H313.915C324.279 324.462 343.903 368.213 340.581 375.853H186.356Z" fill="#424242"/>
<path d="M264.087 171.191C263.091 162.648 258.108 161.226 254.122 162.794C255.118 155.246 280.032 151.26 292.988 149.267C296.974 150.264 296.974 154.675 296.974 157.239V157.24C283.022 164.215 279.036 169.198 264.087 171.191Z" fill="#86BEF1"/>
<path d="M228.211 162.222C231.704 165.484 237.18 167.205 237.18 167.205C237.18 163.786 238.55 161.532 241.167 160.229C243.783 158.926 245.153 162.222 245.153 162.222L245.153 158.236L234.191 153.253C234.191 153.253 228.211 156.243 228.211 162.222Z" fill="#86BEF1"/>
<path d="M378.45 318.053C376.457 257.263 346.56 165.58 344.567 163.586C319.056 167.573 313.342 196.473 313.674 210.425L336.595 297.125L285.771 375.853H323.64L378.45 318.053Z" fill="#FFCCB7"/>
<path d="M316.905 295.336C304.149 275.405 306.939 233.549 310.926 208.635C320.227 221.923 334.335 249.635 329.86 257.467C325.874 264.443 320.891 280.388 316.905 295.336Z" fill="#86BEF1"/>
<path d="M345.564 163.587C320.052 162.79 312.013 192.487 310.685 208.432C323.881 265.439 324.878 278.394 336.836 296.332C328.864 301.315 324.878 315.267 297.971 353.136C304.349 362.703 327.203 372.735 334.843 375.06L378.692 318.257C385.668 306.298 373.709 247.501 345.564 163.587Z" fill="#AED8FF" stroke="#86BEF1" stroke-width="0.1"/>
<rect x="11.9421" y="168.245" width="46.3728" height="73.7452" rx="6" transform="rotate(-12 11.9421 168.245)" fill="#BE123C"/>
<rect x="16.9937" y="171.806" width="38.904" height="64.4949" rx="6" transform="rotate(-12 16.9937 171.806)" fill="white"/>
<path d="M46.3353 179.889C46.5081 180.546 46.3702 181.189 46.0186 181.703C45.667 182.218 45.0767 182.59 44.3574 182.714L36.8406 184.003C34.7233 184.366 33.4227 186.224 33.9315 188.158C33.9778 188.334 34.0418 188.497 34.1059 188.66C33.3608 187.84 32.7797 186.799 32.4681 185.614C31.762 182.93 32.6949 180.439 34.5875 179.543C34.8695 179.408 35.1839 179.315 35.5081 179.26L43.1161 177.955C44.5446 177.71 45.9896 178.574 46.3353 179.889Z" fill="#BE123C"/>
<path d="M42.9819 186.233C43.1542 186.887 43.0167 187.527 42.646 188.043C42.2855 188.557 41.687 188.929 40.9599 189.054L39.3948 189.322C37.7085 189.611 36.4279 190.639 35.8803 191.965C35.1958 191.37 34.6995 190.607 34.469 189.732C34.3452 189.262 34.3071 188.797 34.3493 188.356C34.5192 186.517 36.0092 184.962 38.1499 184.595L39.715 184.327C41.1085 184.089 42.5169 184.868 42.933 186.087C42.9528 186.122 42.9673 186.177 42.9819 186.233Z" fill="#BE123C"/>
<path d="M37.8173 193.013C38.3951 192.914 38.751 192.407 38.6121 191.88C38.4733 191.353 37.8924 191.006 37.3146 191.105C36.7367 191.204 36.3808 191.712 36.5197 192.238C36.6585 192.765 37.2394 193.112 37.8173 193.013Z" fill="#BE123C"/>
<path d="M90.1099 229.093L67.5248 208.431L66.857 207.988C61.6132 204.542 57.9044 202.927 55.3838 200.37C50.8831 195.803 46.8049 188.382 49.7586 182.933C81.5271 198.429 94.5759 210.452 90.1099 229.093Z" fill="#FFCCB7"/>
</svg>
