<svg width="499" height="387" viewBox="0 0 499 387" fill="none" xmlns="http://www.w3.org/2000/svg">
<path d="M169.496 61.8635C177.801 61.8635 189.427 67.6436 169.496 90.7637C166.174 86.4453 161.524 74.6195 169.496 61.8635Z" fill="#CD8B66"/>
<path d="M143.586 129.629V159.526L182.451 163.512C184.112 189.09 175.476 233.271 115.682 233.271C49.9094 233.271 39.2795 181.782 36.9542 159.526H88.7752V94.7493C78.1452 95.0815 64.8578 89.7666 66.8509 70.832C69.0981 49.4834 90.1039 62.5273 96.7476 70.832V46.9146C96.7476 15.0247 169.496 11.0386 169.496 46.9146V70.832C171.888 79.6017 170.493 94.4171 169.496 100.729C167.902 119.863 151.558 127.968 143.586 129.629Z" fill="#FFC19E"/>
<path d="M115.682 128.633C127.641 130.626 135.613 131.622 143.586 129.629V154.543C124.452 152.151 117.011 135.608 115.682 128.633Z" fill="#CD8B66"/>
<path d="M86.7818 81.7943C87.4462 76.8116 87.7785 67.8425 75.8197 68.839" stroke="#52270F" stroke-width="0.5"/>
<path d="M149.565 104.715C144.582 105.38 134.417 105.313 133.62 99.7324" stroke="#262626" stroke-width="0.5"/>
<path d="M146.575 83.7876C150.894 86.7773 156.94 93.3545 146.575 95.7463" stroke="#262626" stroke-width="0.5"/>
<path d="M133.62 73.8323C133.62 72.1754 132.277 70.8323 130.62 70.8323H128.648C126.991 70.8323 125.648 72.1754 125.648 73.8323V76.8116H133.62V73.8323Z" fill="#262626"/>
<path d="M161.524 73.8323C161.524 72.1754 160.181 70.8323 158.524 70.8323H156.551C154.894 70.8323 153.551 72.1754 153.551 73.8323V76.8116H161.524V73.8323Z" fill="#262626"/>
<rect width="19.9311" height="3.98623" rx="1" transform="matrix(-1 0 0 1 139.599 58.8738)" fill="#52270F"/>
<rect width="13.9518" height="3.98623" rx="1" transform="matrix(-1 0 0 1 165.51 58.8738)" fill="#52270F"/>
<path d="M106.713 55.884C108.307 71.0317 100.733 72.8255 96.7473 71.8289C88.7751 60.8666 78.1452 59.2057 73.8267 59.8701C65.8543 27.183 84.4564 20.6723 94.7541 22.0011C98.7405 -10.8854 160.527 3.06643 163.517 4.06304C179.462 9.37824 187.434 27.9803 184.445 40.9355C182.451 33.9596 172.486 30.9701 168.499 30.9701C171.489 31.9665 176.472 35.9527 176.472 41.9321C161.524 35.9527 167.503 41.9321 117.675 38.9426C113.357 38.2782 105.118 40.7364 106.713 55.884Z" fill="#52270F"/>
<path d="M212.416 329.363L181.84 194.347L154.884 267.13C154.884 267.13 162.303 321.559 174.137 342.918L137 370.78L204.5 370.78L212.416 329.363Z" fill="#FFC19E"/>
<path d="M125.315 163.512C125.315 145.973 127.308 141.588 88.7752 141.588V153.75L35.9577 159.526C21.6073 189.024 61.5357 275.126 51.9027 326.947H178.465C194.41 238.254 190.092 180.121 182.451 163.512L147.572 159.526V148.564H134.617V180.454C129.301 180.454 125.315 178.46 125.315 163.512Z" fill="#85909B"/>
<circle cx="117.342" cy="151.554" r="2.98967" fill="#D9D9D9"/>
<path d="M184.445 371.793C186.039 353.456 181.123 332.927 178.465 325.951H51.9025C41.5383 342.693 37.6185 364.152 40.9404 371.793H184.445Z" fill="#656565"/>
<path d="M48.9129 328.941L179.461 328.941C182.65 331.333 181.787 336.249 181.455 337.91C151.558 343.889 120.665 339.903 45.9232 339.903C44.9273 336.913 46.9198 329.937 48.9129 328.941Z" fill="#1C1C1C"/>
<rect width="25.9105" height="17.938" rx="2" transform="matrix(-1 0 0 1 145.579 325.951)" fill="#B0B0B0"/>
<rect width="21.9242" height="13.9518" rx="2" transform="matrix(-1 0 0 1 147.572 327.944)" fill="#1C1C1C"/>
<path d="M64.7661 300.244C71.9413 278.718 70.7454 237.128 69.7489 205.571C61.4442 228.824 47.6252 275.13 50.8142 282.306C54.0032 289.481 54.1361 313.863 53.8039 325.158L64.7661 300.244Z" fill="#6E767D"/>
<path d="M3.07121 313.992C5.06432 253.202 34.961 161.519 36.9541 159.525C62.466 163.512 68.1796 192.412 67.8474 206.364L44.9266 293.064L95.751 371.792H57.8818L3.07121 313.992Z" fill="#FFC19E"/>
<path d="M35.5 156.28L82.5 152.78C92.6667 166.614 111.5 219.58 105.5 320.78L96 348.28L86 352.28L49 363.78L0.999998 312.78C-3.4 264.78 22.1667 188.447 35.5 156.28Z" fill="#262626"/>
<path d="M182.5 162.78L150.5 159.78C144.5 178.58 161.667 277.947 171 325.28L211.5 312.78L204.5 285.28C196 261.28 191 193.947 182.5 162.78Z" fill="#262626"/>
<path d="M252.5 299.28L24 371.78H357L498.5 299.28H252.5Z" fill="#CD8B66"/>
<path d="M54.5 283.78C61.3 270.58 67.6667 229.614 70 210.78C68.4028 229.75 77.5 254.78 91 347.78C75.8 318.18 60.3333 292.78 54.5 283.78Z" fill="#1F1F1F"/>
<path d="M193.5 317.28L181 163.28L212.5 311.78L193.5 317.28Z" fill="#1F1F1F"/>
<path d="M387.775 238.871C387.775 238.871 392 234.246 387.94 231.417C380.27 226.071 375.631 216.28 376.27 214.053C373.97 212.526 375.312 211.508 376.27 211.189H383.94C387.008 225.698 393.527 226.144 396.404 224.553V212.144C394.87 210.617 395.764 209.598 396.404 209.28H402.156H407.596C408.236 209.598 409.13 210.617 407.596 212.144V224.553C410.473 226.144 416.992 225.698 420.06 211.189H427.73C428.688 211.508 430.03 212.526 427.73 214.053C428.369 216.28 423.895 226.071 416.225 231.417C410 234.78 416.225 238.871 416.225 238.871C402.156 251.28 404.073 282.78 412.39 299.008C414.307 300.28 417.567 305.117 415.266 314.28H388.734C386.433 305.117 389.693 300.28 391.61 299.008C397.362 282.78 402.156 250.28 387.775 238.871Z" fill="#463D3D"/>
<ellipse cx="402.5" cy="310.78" rx="27.5" ry="7.5" fill="#463D3D"/>
<rect x="399.05" y="180.33" width="5.9" height="28.9" fill="#FCE8B5" stroke="#DFA50F" stroke-width="0.1"/>
<rect x="421.05" y="182.33" width="5.9" height="28.9" fill="#FCE8B5" stroke="#DFA50F" stroke-width="0.1"/>
<rect x="377.05" y="182.33" width="5.9" height="28.9" fill="#FCE8B5" stroke="#DFA50F" stroke-width="0.1"/>
<path d="M401.567 164.28C397.834 175.355 398.845 179.752 400.4 180.566H403.317C405.65 177.96 405.651 174.866 401.567 164.28Z" fill="#EFC24E"/>
<path d="M401.925 170.794C399.708 177.439 400.401 177.309 401.232 180.566H402.964C404.35 179.002 404.35 177.146 401.925 170.794Z" fill="#EF6B4E"/>
<path d="M379.567 166.447C375.834 177.213 376.845 181.488 378.4 182.28H381.317C383.65 179.747 383.651 176.738 379.567 166.447Z" fill="#EFC24E"/>
<path d="M379.925 172.78C377.708 179.24 378.401 179.113 379.232 182.28H380.964C382.35 180.76 382.35 178.955 379.925 172.78Z" fill="#EF6B4E"/>
<path d="M423.567 165.995C419.834 177.069 420.845 181.466 422.4 182.28H425.317C427.65 179.675 427.651 176.58 423.567 165.995Z" fill="#EFC24E"/>
<path d="M423.925 172.509C421.708 179.153 422.401 179.023 423.232 182.28H424.964C426.35 180.717 426.35 178.86 423.925 172.509Z" fill="#EF6B4E"/>
<ellipse cx="264.5" cy="332.28" rx="63.5" ry="24" fill="#D9D9D9"/>
<ellipse cx="264.5" cy="331.28" rx="52.5" ry="16" fill="#B8B8B8"/>
<circle cx="248" cy="317.28" r="9" fill="#52270F"/>
<circle cx="248" cy="317.28" r="9" fill="url(#paint0_linear_89_2372)"/>
<circle cx="284" cy="322.28" r="9" fill="#52270F"/>
<circle cx="284" cy="322.28" r="9" fill="url(#paint1_linear_89_2372)"/>
<circle cx="261" cy="331.28" r="9" fill="#52270F"/>
<path d="M221.258 324.724C225.137 300.815 274.997 316.697 300.52 328.182L299.02 329.682L297.52 331.182C276.32 335.982 237.686 331.182 221.02 328.182C220.958 326.93 221.041 325.779 221.258 324.724Z" fill="url(#paint2_linear_89_2372)"/>
<path d="M300.52 328.182C273.853 316.182 220.62 299.382 221.02 328.182M300.52 328.182C273.52 318.016 219.82 303.782 221.02 328.182M300.52 328.182L299.02 329.682M221.02 328.182C237.686 331.182 276.32 335.982 297.52 331.182M221.02 328.182C226.853 322.849 250.62 315.682 299.02 329.682M221.02 328.182C243.186 327.516 289.52 327.182 297.52 331.182M297.52 331.182L299.02 329.682" stroke="#6C300D" stroke-opacity="0.3" stroke-width="0.2"/>
<circle cx="265" cy="323.28" r="9" fill="#52270F"/>
<circle cx="265" cy="323.28" r="9" fill="url(#paint3_linear_89_2372)"/>
<circle cx="231" cy="328.28" r="9" fill="url(#paint4_linear_89_2372)"/>
<path d="M306.74 332.138C302.838 303.59 252.677 322.554 227 336.267L228.509 338.058L230.018 339.849C251.346 345.58 290.213 339.849 306.98 336.267C307.042 334.771 306.958 333.397 306.74 332.138Z" fill="url(#paint5_linear_89_2372)"/>
<path d="M227 336.267C253.828 321.939 307.383 301.88 306.98 336.267M227 336.267C254.163 324.128 308.187 307.134 306.98 336.267M227 336.267L228.509 338.058M306.98 336.267C290.213 339.849 251.346 345.58 230.018 339.849M306.98 336.267C301.112 329.899 277.201 321.342 228.509 338.058M306.98 336.267C284.68 335.471 238.067 335.073 230.018 339.849M230.018 339.849L228.509 338.058" stroke="#6C300D" stroke-opacity="0.3" stroke-width="0.2"/>
<path d="M279 340.629C279 336.988 282.2 330.33 295 332.827C290.367 341.188 287.381 344.597 279 340.629Z" fill="#134336"/>
<path d="M279 340.78C279.192 340.492 279.462 340.153 279.813 339.78M293.5 333.28C290.496 333.781 288.281 334.441 286.5 335.21M279.813 339.78C281.042 339.78 282.5 340.78 285.5 341.28M279.813 339.78C280.139 339.433 280.534 339.057 281 338.663M281.78 338.041C282.52 337.787 284 339.28 288.5 340.28M281.78 338.041C281.501 338.252 281.241 338.46 281 338.663M281.78 338.041C282.334 337.623 282.897 337.215 283.5 336.823M281 338.663C280.667 338.202 280.3 336.88 281.5 335.28M284 336.508C284.74 336.254 287 338.28 291.5 337.78M283.5 336.823C283.5 336.142 283.7 334.58 284.5 333.78M283.5 336.823C284.384 336.249 285.352 335.707 286.5 335.21M286.5 335.21C286.833 334.567 287.9 333.18 289.5 332.78" stroke="#36564D" stroke-width="0.1" stroke-linecap="round"/>
<path d="M275.728 343.223C273.666 340.222 272.533 332.923 284.496 327.731C285.413 337.245 284.883 341.747 275.728 343.223Z" fill="#125845"/>
<path d="M275.814 343.348C275.81 343.001 275.84 342.569 275.918 342.063M283.516 328.954C281.324 331.068 279.873 332.866 278.841 334.51M275.918 342.063C276.931 341.367 278.699 341.365 281.454 340.078M275.918 342.063C275.99 341.593 276.102 341.059 276.264 340.47M276.554 339.516C277.02 338.888 279.085 339.28 283.36 337.555M276.554 339.516C276.443 339.848 276.347 340.166 276.264 340.47M276.554 339.516C276.774 338.857 277.007 338.203 277.282 337.538M276.264 340.47C275.728 340.279 274.677 339.397 274.76 337.399M277.515 336.995C277.981 336.367 280.991 336.756 284.417 333.795M277.282 337.538C276.896 336.977 276.176 335.576 276.382 334.464M277.282 337.538C277.684 336.564 278.175 335.569 278.841 334.51M278.841 334.51C278.751 333.791 278.844 332.044 279.937 330.808" stroke="#568679" stroke-width="0.1" stroke-linecap="round"/>
<path fill-rule="evenodd" clip-rule="evenodd" d="M261.003 116.28C261.179 125.036 268.244 132.102 277 132.277V132.284C268.244 132.459 261.179 139.524 261.003 148.28H260.997C260.821 139.524 253.756 132.459 245 132.284V132.277C253.756 132.102 260.821 125.036 260.997 116.28H261.003Z" fill="#FFC83A"/>
<path fill-rule="evenodd" clip-rule="evenodd" d="M339.997 250.28H340.003C340.134 256.847 345.433 262.146 352 262.278V262.283C345.433 262.414 340.134 267.713 340.003 274.28H339.997C339.866 267.713 334.567 262.414 328 262.283V262.278C334.567 262.146 339.866 256.847 339.997 250.28Z" fill="#FFC83A"/>
<path fill-rule="evenodd" clip-rule="evenodd" d="M55.0017 116.28C55.0893 120.658 58.622 124.191 63 124.279V124.282C58.622 124.37 55.0893 127.902 55.0017 132.28H54.9983C54.9107 127.902 51.378 124.37 47 124.282V124.279C51.3779 124.191 54.9107 120.658 54.9983 116.28H55.0017Z" fill="#FFC83A"/>
<defs>
<linearGradient id="paint0_linear_89_2372" x1="248" y1="308.28" x2="248" y2="326.28" gradientUnits="userSpaceOnUse">
<stop stop-color="#6E0D0D"/>
<stop offset="1" stop-color="#52270F"/>
</linearGradient>
<linearGradient id="paint1_linear_89_2372" x1="284" y1="313.28" x2="284" y2="331.28" gradientUnits="userSpaceOnUse">
<stop stop-color="#6E0D0D"/>
<stop offset="1" stop-color="#52270F"/>
</linearGradient>
<linearGradient id="paint2_linear_89_2372" x1="260.76" y1="312.28" x2="260.76" y2="333.218" gradientUnits="userSpaceOnUse">
<stop stop-color="#FFC01F"/>
<stop offset="1" stop-color="#EDBE45"/>
</linearGradient>
<linearGradient id="paint3_linear_89_2372" x1="265" y1="314.28" x2="265" y2="332.28" gradientUnits="userSpaceOnUse">
<stop stop-color="#6E0D0D"/>
<stop offset="1" stop-color="#52270F"/>
</linearGradient>
<linearGradient id="paint4_linear_89_2372" x1="231" y1="319.28" x2="231" y2="337.28" gradientUnits="userSpaceOnUse">
<stop stop-color="#6E0D0D"/>
<stop offset="1" stop-color="#52270F"/>
</linearGradient>
<linearGradient id="paint5_linear_89_2372" x1="267" y1="317.28" x2="267" y2="342.28" gradientUnits="userSpaceOnUse">
<stop stop-color="#FFC01F"/>
<stop offset="1" stop-color="#EDBE45"/>
</linearGradient>
</defs>
</svg>
