<svg width="382" height="372" viewBox="0 0 382 372" fill="none" xmlns="http://www.w3.org/2000/svg">
<path d="M169.506 61.5831C177.811 61.5831 189.437 67.3632 169.506 90.4833C166.184 86.1649 161.534 74.3391 169.506 61.5831Z" fill="#CD8B66"/>
<path d="M143.596 129.349V159.245L182.462 163.231C184.123 188.81 175.486 232.99 115.692 232.99C49.9195 232.99 39.2897 181.502 36.9644 159.245H88.7853V94.4691C78.1553 94.8012 64.8679 89.4863 66.861 70.5517C69.1083 49.2031 90.114 62.2471 96.7577 70.5517V46.6343C96.7577 14.7445 169.506 10.7583 169.506 46.6343V70.5517C171.898 79.3214 170.503 94.1369 169.506 100.448C167.912 119.582 151.568 127.688 143.596 129.349Z" fill="#FFC19E"/>
<path d="M115.692 128.352C127.651 130.345 135.623 131.342 143.596 129.349V154.263C124.462 151.871 117.021 135.328 115.692 128.352Z" fill="#CD8B66"/>
<path d="M86.7921 81.5139C87.4564 76.5312 87.7887 67.5621 75.8299 68.5586" stroke="#52270F" stroke-width="0.5"/>
<path d="M149.575 104.435C144.592 105.099 134.428 105.033 133.63 99.4523" stroke="#262626" stroke-width="0.5"/>
<path d="M146.586 83.5073C150.904 86.497 156.95 93.0743 146.586 95.466" stroke="#262626" stroke-width="0.5"/>
<path d="M133.63 73.552C133.63 71.8951 132.287 70.552 130.63 70.552H128.658C127.001 70.552 125.658 71.8951 125.658 73.552V76.5313H133.63V73.552Z" fill="#262626"/>
<path d="M161.534 73.552C161.534 71.8951 160.191 70.552 158.534 70.552H156.561C154.905 70.552 153.561 71.8951 153.561 73.552V76.5313H161.534V73.552Z" fill="#262626"/>
<rect width="19.9311" height="3.98623" rx="1" transform="matrix(-1 0 0 1 139.61 58.5935)" fill="#52270F"/>
<rect width="13.9518" height="3.98623" rx="1" transform="matrix(-1 0 0 1 165.52 58.5935)" fill="#52270F"/>
<path d="M106.723 55.6037C108.317 70.7514 100.744 72.5452 96.7574 71.5486C88.7852 60.5864 78.1553 58.9254 73.8369 59.5898C65.8644 26.9028 84.4665 20.3921 94.7642 21.7208C98.7506 -11.1657 160.537 2.78616 163.527 3.78276C179.472 9.09797 187.444 27.7 184.455 40.6552C182.462 33.6793 172.496 30.6898 168.509 30.6898C171.499 31.6862 176.482 35.6725 176.482 41.6518C161.534 35.6725 167.513 41.6518 117.685 38.6623C113.367 37.9979 105.128 40.4561 106.723 55.6037Z" fill="#52270F"/>
<path d="M241.485 275.795L179.663 169.163L177.194 246.738C177.194 246.738 228.494 336.564 241.485 323.678L314.695 241.159L349.692 241.159C368.392 234.889 374.867 213.854 372.943 206.341C354.434 199.801 335.379 194.774 326.148 196.029C330.649 191.463 334.727 184.042 331.773 178.593C300.005 194.088 286.956 206.111 291.422 224.753L241.485 275.795Z" fill="#FFC19E"/>
<path d="M231.048 254.381C237.977 244.766 204.216 189.84 182.461 163.232C150.514 190.944 147.976 220.717 148.201 222.698C171.765 274.576 194.377 295.678 199.403 295.774C199.403 301.753 203.439 301.312 205.382 300.757C204.249 304.898 207.533 305.954 208.891 306.134C227.365 301.02 237.272 275.843 240.662 268.331C242.762 263.678 240.315 262.353 237.892 261.626C240.699 258.096 234.499 255.326 231.048 254.381Z" fill="#446B61"/>
<path d="M125.325 163.232C125.325 145.692 127.318 141.308 88.7853 141.308V153.47L35.9678 159.246C21.6174 188.744 61.5458 274.846 51.9128 326.667H178.475C194.42 237.974 190.102 179.841 182.462 163.232L147.582 159.246V148.283H134.627V180.173C129.311 180.173 125.325 178.18 125.325 163.232Z" fill="#568679"/>
<circle cx="117.352" cy="151.273" r="2.98967" fill="#D9D9D9"/>
<path d="M184.455 371.512C186.049 353.176 181.133 332.647 178.475 325.671H51.9127C41.5485 342.413 37.6287 363.872 40.9505 371.512H184.455Z" fill="#656565"/>
<path d="M48.923 328.66L179.472 328.66C182.661 331.052 181.797 335.968 181.465 337.629C151.568 343.608 120.675 339.622 45.9333 339.622C44.9374 336.632 46.9299 329.657 48.923 328.66Z" fill="#1C1C1C"/>
<rect width="25.9105" height="17.938" rx="2" transform="matrix(-1 0 0 1 145.589 325.671)" fill="#B0B0B0"/>
<rect width="21.9242" height="13.9518" rx="2" transform="matrix(-1 0 0 1 147.582 327.664)" fill="#1C1C1C"/>
<path d="M64.7762 299.964C71.9514 278.438 70.7556 236.848 69.759 205.291C61.4544 228.544 47.6354 274.85 50.8243 282.026C54.0133 289.201 54.1462 313.583 53.814 324.877L64.7762 299.964Z" fill="#446B61"/>
<path d="M3.08134 313.711C5.07445 252.921 34.9711 161.238 36.9643 159.245C62.4761 163.231 68.1897 192.131 67.8575 206.083L44.9367 292.784L95.7611 371.512H57.892L3.08134 313.711Z" fill="#FFC19E"/>
<path d="M3.08138 266.873C-1.70209 253.32 22.6803 189.474 35.9677 159.245C61.4796 158.448 69.5185 188.146 70.8472 204.09C62.0775 251.925 56.231 271.524 52.9091 274.846C56.8954 278.035 52.2448 281.822 49.9195 282.818C53.9058 286.007 50.2517 288.798 47.9264 289.794C27.1981 293.781 9.39291 289.462 3.08138 286.805C-2.49933 285.21 0.756088 280.161 3.08138 277.836C-2.49933 272.255 0.756088 268.202 3.08138 266.873Z" fill="#568679"/>
<rect width="46.3728" height="73.7452" rx="6" transform="matrix(-0.978148 -0.207912 -0.207912 0.978148 369.589 163.904)" fill="#BE123C"/>
<rect width="38.904" height="64.4949" rx="6" transform="matrix(-0.978148 -0.207912 -0.207912 0.978148 364.538 167.465)" fill="white"/>
<path d="M351.521 180.411C351.348 181.068 350.899 181.61 350.318 181.965C349.738 182.321 349.011 182.467 348.292 182.343L340.775 181.054C338.658 180.691 336.534 181.962 336.025 183.896C335.979 184.072 335.955 184.242 335.932 184.412C335.664 183.418 335.657 182.275 335.969 181.091C336.675 178.407 338.781 176.437 340.961 176.24C341.287 176.209 341.621 176.227 341.945 176.283L349.553 177.588C350.982 177.833 351.867 179.097 351.521 180.411Z" fill="#BE123C"/>
<path d="M345.447 185.084C345.275 185.738 344.827 186.277 344.228 186.627C343.639 186.979 342.905 187.123 342.178 186.998L340.613 186.73C338.927 186.441 337.238 186.961 336.069 187.993C335.744 187.225 335.675 186.366 335.905 185.491C336.029 185.021 336.229 184.583 336.49 184.195C337.572 182.57 339.717 181.637 341.858 182.004L343.423 182.272C344.816 182.511 345.71 183.684 345.476 184.935C345.476 184.973 345.462 185.028 345.447 185.084Z" fill="#BE123C"/>
<path d="M337.467 189.553C338.045 189.652 338.626 189.305 338.765 188.778C338.904 188.251 338.548 187.744 337.97 187.645C337.392 187.546 336.811 187.893 336.672 188.42C336.534 188.947 336.889 189.454 337.467 189.553Z" fill="#BE123C"/>
<path d="M291.422 224.753L314.007 204.091L314.675 203.647C319.918 200.201 323.627 198.587 326.148 196.029C330.648 191.462 334.727 184.041 331.773 178.592C300.004 194.088 286.956 206.111 291.422 224.753Z" fill="#FFC19E"/>
</svg>
